<?xml version="1.0" encoding="UTF-8" standalone="no"?>
<!-- Created with Inkscape (http://www.inkscape.org/) -->

<svg
   xmlns:dc="http://purl.org/dc/elements/1.1/"
   xmlns:cc="http://creativecommons.org/ns#"
   xmlns:rdf="http://www.w3.org/1999/02/22-rdf-syntax-ns#"
   xmlns:svg="http://www.w3.org/2000/svg"
   xmlns="http://www.w3.org/2000/svg"
   xmlns:sodipodi="http://sodipodi.sourceforge.net/DTD/sodipodi-0.dtd"
   xmlns:inkscape="http://www.inkscape.org/namespaces/inkscape"
   width="32"
   height="32"
   viewBox="0 0 32 32"
   id="svg4398"
   version="1.1"
   inkscape:version="0.91 r"
   sodipodi:docname="geographic.svg">
  <defs
     id="defs4400" />
  <sodipodi:namedview
     id="base"
     pagecolor="#ffffff"
     bordercolor="#666666"
     borderopacity="1.0"
     inkscape:pageopacity="0.0"
     inkscape:pageshadow="2"
     inkscape:zoom="45.254834"
     inkscape:cx="7.431469"
     inkscape:cy="17.086458"
     inkscape:document-units="px"
     inkscape:current-layer="layer1"
     showgrid="false"
     units="px"
     inkscape:window-width="1920"
     inkscape:window-height="991"
     inkscape:window-x="1680"
     inkscape:window-y="0"
     inkscape:window-maximized="1" />
  <metadata
     id="metadata4403">
    <rdf:RDF>
      <cc:Work
         rdf:about="">
        <dc:format>image/svg+xml</dc:format>
        <dc:type
           rdf:resource="http://purl.org/dc/dcmitype/StillImage" />
        <dc:title></dc:title>
      </cc:Work>
    </rdf:RDF>
  </metadata>
  <g
     inkscape:label="Layer 1"
     inkscape:groupmode="layer"
     id="layer1"
     transform="translate(0,-1020.3622)">
    <rect
       style="fill:#0000ff;stroke:none;stroke-width:1.5;stroke-miterlimit:4;stroke-dasharray:none;fill-opacity:1"
       id="rect4410"
       width="31.964285"
       height="32.05357"
       x="0.04464284"
       y="1020.3533" />
    <path
       style="fill:#c8ab37;fill-rule:evenodd;stroke:#ffeeaa;stroke-width:0.7;stroke-linecap:butt;stroke-linejoin:miter;stroke-opacity:1;stroke-miterlimit:4;stroke-dasharray:none"
       d="m 12.946429,1023.7908 c -1.116071,1.3393 3.214286,1.4732 1.383929,2.4553 -1.830357,0.9822 -1.160715,2.0536 -2.232143,0.759 -1.07143,-1.2947 0,0 -1.071429,-1.6072 -1.1160719,-0.5803 -1.0267865,-0.8929 -1.964286,-1.116 -4.2106588,0.017 -5.4269719,1.7675 -3.2589286,2.8125 1.8361782,0.1638 4.0021819,3.7577 1.3839286,3.8839 -0.7589286,-0.1339 -1.7857143,-2.5893 -1.6964286,-1.9197 0.089286,0.6697 -0.4910714,0.7143 -0.4464285,2.6786 0.6268901,2.0624 0,0 0.625,2.9015 2.4107142,1.7411 -0.089286,1.6518 2.4107142,1.7411 2.4999999,0.089 2.9910709,-0.8482 3.2142859,0.2232 0.818361,4.4104 -8.407296,0.044 -6.0714287,3.125 1.0965117,4.7247 5.2280637,0.3167 6.6071437,1.4286 0.892857,0.7589 1.607143,0.5357 0.892857,1.6071 -1.338182,1.5936 -2.459639,3.1621 -1.205357,4.1964 1.473214,1.1607 0.223214,5.0447 3.392857,2.0982 9.616365,-0.9481 2.051475,-2.1723 8.035714,-4.3303 1.339286,0.8482 1.383929,1.6518 2.544643,0.1786 1.160714,-1.4733 1.25,-0.045 1.830357,-2.1429 0.580357,-2.0982 0.714286,-3.7946 -0.3125,-4.9554 -1.026785,-1.1607 -1.875,-1.2946 -2.410714,-3.1696 -0.535714,-1.875 -2.857143,-1.875 -0.267857,-2.8125 2.589286,-0.9375 0,0 2.946428,-0.9821 1.437253,-0.7905 -0.696763,-4.5594 -2.008928,-3.7497 -3.125,1.6071 -1.116072,3.1696 -3.392857,1.741 -2.276786,-1.4285 -2.901786,-1.25 -3.035715,-2.5446 -0.133928,-1.2947 2.232143,-0.9822 -0.133928,-2.1875 -2.366072,-1.2054 -1.294643,-1.9197 -2.857143,-1.3393 -1.5625,0.5804 -2.901786,1.0268 -2.901786,1.0268 z"
       id="path4408"
       inkscape:connector-curvature="0"
       sodipodi:nodetypes="cccccccccccccccccccccsscccscsc" />
    <path
       style="fill:#338000;fill-rule:evenodd;stroke:none;stroke-width:0.94348961px;stroke-linecap:butt;stroke-linejoin:miter;stroke-opacity:1"
       d="m 8.0918979,1026.8712 c 0.1472315,-0.043 0.1328948,0.1256 0.2149736,0.165 0.012819,0.01 0.03286,-0.01 0.042995,0 0.1469715,-0.067 0.1586346,0.3088 0.386955,0.5759 0.010135,0.011 0.032861,-0.01 0.042995,0 0.020268,0.019 -0.020269,0.063 0,0.082 0.010134,0.011 0.03286,-0.011 0.042995,0 0.020268,0.019 -0.020268,0.063 0,0.082 0.010135,0.011 0.032861,-0.01 0.042995,0 0.010134,0.011 -0.010134,0.032 0,0.041 0.2601184,0.1724 0.3611246,0.5615 0.51594,0.9028 0.00906,0.017 0.03393,0.024 0.042995,0.041 0.017198,0.034 -0.017198,0.091 0,0.1238 0.011499,0.022 0.074489,0.06 0.08599,0.082 0.017198,0.033 -0.017198,0.091 0,0.1238 0.098985,0.1515 0.20064,0.3013 0.30096,0.452 0.0085,0.016 -0.0088,0.1154 0,0.1238 0.08896,0.085 -0.0035,-0.1306 0.08599,0.041 0.0078,0.014 0,0.1776 0,0.2063 0,0.013 0.01013,0.032 0,0.041 -0.1812795,0.1056 -0.1678651,0.2413 -0.257965,0.3708 -0.010134,0.011 0,0.028 0,0.041 0,0.03 0.00556,0.2369 0,0.2476 -0.00906,0.017 -0.03393,0.024 -0.042995,0.041 -0.00566,0.012 0,0.1434 0,0.1651 l 0,0.4539 c 0,0.014 0.00173,0.1633 0,0.165 -0.010134,0.011 -0.032861,-0.011 -0.042995,0 -0.055025,0.4629 -0.414722,0.4731 -0.730915,0.6184 -0.020268,0.019 -0.065722,-0.019 -0.08599,0 -0.010134,0.011 0.010135,0.032 0,0.041 -0.1199773,0.052 -0.2112371,0.087 -0.3009642,0.124 -0.036256,0.017 -0.049734,0.065 -0.08599,0.082 -0.012819,0.01 -0.03286,-0.01 -0.042995,0 -0.010135,0.01 0.010134,0.032 0,0.041 -0.010135,0.01 -0.032861,-0.011 -0.042995,0 -0.2760734,0.1816 -0.173396,0.5317 -0.17198,0.9888 0.099484,0.2473 0.7522743,0.5929 1.5048208,0.7816 l 0.257968,0 c 0.01433,0 0.03286,0.011 0.04299,0 0.02266,-0.022 0.03286,-0.054 0.04299,-0.082 0.0045,-0.014 -0.01013,-0.032 0,-0.042 0.01013,-0.01 0.03286,0.01 0.04299,0 0.01034,-0.011 -0.01034,-0.155 0,-0.1651 0.01013,-0.01 0.03286,0.011 0.04299,0 0.01013,-0.01 -0.0065,-0.029 0,-0.041 0.0091,-0.017 0.03393,-0.024 0.04299,-0.041 0.01282,-0.025 -0.02027,-0.063 0,-0.082 0.01013,-0.01 0.03286,0.01 0.04299,0 0.01013,-0.01 -0.01013,-0.032 0,-0.041 0.01013,-0.011 0.03286,0.011 0.04299,0 0.01013,-0.011 -0.01013,-0.032 0,-0.041 l 0.214975,0 c 0.01433,0 0.03286,-0.011 0.04299,0 0.02266,0.021 0.02033,0.061 0.04299,0.082 0.02026,0.019 0.06572,-0.019 0.08599,0 0.01013,0.01 -0.01013,0.032 0,0.041 0.374657,-0 0.516933,0.243 0.730874,0.371 0.01013,0.011 0.03286,-0.011 0.04299,0 0.01013,0.011 -0.01013,0.032 0,0.041 0.01013,0.011 0.03286,-0.01 0.04299,0 0.01013,0.011 -0.01013,0.032 0,0.041 0.01013,0.01 0.03286,-0.011 0.04299,0 0.01013,0.01 -0.0064,0.029 0,0.041 0.850104,0.5925 0.779364,0.4957 0.98883,1.2347 0.01013,0.011 0.03286,-0.01 0.04299,0 0.01331,0.013 -0.01331,0.1935 0,0.2063 0.02027,0.019 0.06572,-0.019 0.08599,0 0.01013,0.01 -0.01013,0.032 0,0.041 0.01013,0.01 0.03286,-0.011 0.04299,0 0.01013,0.01 -0.01013,0.032 0,0.041 l 0.17198,0 c 0.01433,0 0.03286,0.011 0.04299,0 0.02266,-0.022 0.02521,-0.057 0.04299,-0.082 0.223404,-0.1936 0.275979,-0.3822 0.386926,-0.5358 0.02027,-0.019 -0.01282,-0.058 0,-0.082 0.01812,-0.035 0.06786,-0.048 0.08599,-0.082 0.01282,-0.025 -0.02027,-0.063 0,-0.082 0.01013,-0.011 0.03286,0.011 0.04299,0 0.01013,-0.011 -0.0064,-0.029 0,-0.041 0.217618,-0.2967 0.314489,-0.1724 0.601908,-0.33 0.01813,-0.01 0.02487,-0.033 0.04299,-0.041 0.02564,-0.012 0.06035,0.012 0.08599,0 0.03626,-0.017 0.04974,-0.064 0.08599,-0.082 0.01281,-0.01 0.03286,0.011 0.04299,0 0.01509,-0.014 -0.01485,-0.1779 0,-0.2064 0.009,-0.017 0.03393,-0.024 0.04299,-0.041 0.0065,-0.013 0.136719,-0.097 0.269531,-0.2371 0.783184,0.4229 0.206684,0.083 0.934301,0.482 0.04036,0.032 0.04946,0.089 0.08599,0.1238 0.04627,0.046 0.173112,0.1376 0.25796,0.205 0.0136,0 0.03658,-0.013 0.04299,0 0.129389,0.2519 -0.361357,0.4338 -0.316311,0.7859 -0.208174,0.3009 -0.09011,0.5088 -0.117461,0.7596 0.02266,0.022 0.188402,0.052 0.218802,0.061 0.400753,-0.037 0.22042,-0.091 0.549793,-0.092 0.04884,-0.01 0.109375,-0.045 0.109375,-0.045 0,0 0.122704,0 0.132834,-0.01 0.0093,-0.1119 0.166562,-0.1947 0.243324,-0.2844 0.0064,-0.012 -0.0064,-0.029 0,-0.041 0.009,-0.017 0.03393,-0.024 0.04299,-0.041 -0.09915,-0.612 0.194009,-0.6032 0.27005,-0.8933 0.600057,-1.2496 0.866864,-1.0633 1.704057,-0.2792 0.01013,0.01 -0.01013,0.032 0,0.042 0.01013,0.01 0.03286,-0.011 0.04299,0 0.02027,0.019 -0.02027,0.063 0,0.082 0.05733,0.056 0.04299,-0.068 0.04299,0.042 0,0.11 -0.01433,-0.014 0.04299,0.041 0.01013,0.011 -0.01013,0.032 0,0.041 0.01013,0.011 0.03017,-0.01 0.04299,0 0.01812,0.01 0.02487,0.033 0.04299,0.041 0.0113,0.01 0.149497,0 0.17198,0 l 0.04299,0 c 0.01433,0 0.03659,0.013 0.04299,0 0.01282,-0.025 -0.01281,-0.059 0,-0.082 0.0064,-0.012 0.03286,0.011 0.04299,0 0.02027,-0.019 -0.01282,-0.058 0,-0.082 0.181862,-0.1945 0.220345,-0.4945 0.30094,-0.6978 l 0,-0.4951 0,-0.3301 0,-0.041 c 0,-0.014 0.01013,-0.032 0,-0.042 -0.02266,-0.022 -0.06333,-0.019 -0.08599,-0.041 -0.01013,-0.01 0,-0.028 0,-0.041 l 0,-0.041 0,-0.33 0,-0.041 c 0,-0.014 -0.01013,-0.032 0,-0.042 0.02266,-0.022 0.05559,-0.032 0.08599,-0.041 0.01359,0 0.03286,0.011 0.04299,0 0.01013,-0.01 -0.01013,-0.032 0,-0.041 0.287011,-0.1512 0.469848,-0.2755 0.81688,-0.493 0.0088,-0.01 0.111938,0.01 0.128985,0 0.01812,-0.01 0.02487,-0.033 0.04299,-0.041 0.01282,-0.01 0.02866,0 0.04299,0 l 0.04299,0 0.257969,0 0.214973,0 0.04299,0 c 0.01433,0 0.03018,0.01 0.04299,0 0.01813,-0.01 0.02377,-0.035 0.04299,-0.041 0.02719,-0.01 0.06036,0.011 0.08599,0 0.01282,-0.01 -0.01013,-0.032 0,-0.041 0.01034,-0.011 0.161633,0.011 0.17198,0 0.01013,-0.011 -0.01013,-0.032 0,-0.041 0.0215,-0.02 0.107487,0.02 0.128984,0 0.01013,-0.01 -0.01013,-0.032 0,-0.041 0.0215,-0.02 0.107486,0.02 0.128984,0 0.01013,-0.01 -0.01013,-0.032 0,-0.041 0.01013,-0.011 0.03286,0.01 0.04299,0 0.361184,-0.4955 0.800651,-0.779 0.98881,-0.988 0.01013,-0.01 -0.01013,-0.032 0,-0.041 0.01177,-0.011 0.148655,0.012 0.171978,0 0.01812,-0.01 0.02487,-0.033 0.04299,-0.041 0.01308,-0.01 0.10962,0 0.128983,0 l 0.343958,0 c 0.01144,0 0.125435,-0.01 0.128984,0 0.01281,0.025 -0.01282,0.058 0,0.082 0.0064,0.013 0.02866,0 0.04299,0 l 0.04299,0 0.386951,0 0.04299,0 c 0.01433,0 0.03286,0.011 0.04299,0 0.01433,-0.028 0.02866,-0.056 0.04299,-0.082 0.01433,0 0.03286,0.01 0.04299,0 0.02026,-0.019 -0.02026,-0.063 0,-0.082 0.115105,-0.047 0.183945,-0.1259 0.30093,-0.206 0.01281,-0.01 0.03017,0.01 0.04299,0 0.03626,-0.017 0.04974,-0.065 0.08599,-0.082 0.01282,-0.01 0.03018,0.01 0.04299,0 0.493001,-0.1344 0.209282,-0.2692 0.42991,-0.6579 l 0,-0.041 c 0,-0.014 0.01281,-0.035 0,-0.041 -0.02564,-0.012 -0.06036,0.013 -0.08599,0 -0.02564,-0.012 0.02027,-0.063 0,-0.082 -0.01013,-0.01 -0.03286,0.011 -0.04299,0 -0.01013,-0.01 0,-0.028 0,-0.041 l 0,-0.2476 c 0,-0.014 0.0017,-0.1634 0,-0.1651 -0.01013,-0.01 -0.03286,0.011 -0.04299,0 -0.01013,-0.01 0.01013,-0.032 0,-0.041 -0.05733,-0.056 -0.04299,0.068 -0.04299,-0.041 0,-0.11 0.01433,0.014 -0.04299,-0.041 -0.01013,-0.01 0.01013,-0.032 0,-0.042 -0.01013,-0.011 -0.02866,0 -0.04299,0 -0.147396,0.1013 -0.14403,0.1966 -0.30093,0.4108 -0.01282,0.025 0.01281,0.059 0,0.082 -0.511319,0.7197 -0.561709,0.5213 -1.023923,0.7212 l -0.386952,0 c -0.02248,0 -0.160674,-0.01 -0.171979,0 -0.01813,0.01 -0.02487,0.033 -0.04299,0.041 -0.01282,0.01 -0.02866,0 -0.04299,0 l -0.04299,0 -0.414218,0.1524 -0.367577,0.1523 -0.04299,0 c -0.01433,0 -0.03286,0.01 -0.04299,0 -0.02266,-0.022 -0.02033,-0.061 -0.04299,-0.083 -0.01013,-0.01 -0.03017,0.01 -0.04299,0 -0.01812,-0.01 -0.02487,-0.033 -0.04299,-0.041 -0.09578,-0.1299 -0.373354,-0.1272 -0.601908,-0.205 -0.01281,-0.01 -0.02866,0 -0.04299,0 l -0.257968,0 c -0.01433,0 -0.03286,-0.011 -0.04299,0 -0.02266,0.022 -0.02033,0.061 -0.04299,0.082 -0.01013,0.01 -0.03286,-0.01 -0.04299,0 -0.01013,0.01 0.01013,0.032 0,0.042 -0.169568,0.089 -0.152293,0.1452 -0.34394,0.328 -0.01013,0.01 -0.03286,-0.01 -0.04299,0 -0.01013,0.01 0.01013,0.032 0,0.041 -0.01013,0.011 -0.03286,-0.011 -0.04299,0 -0.01013,0.011 0.01013,0.032 0,0.042 -0.01331,0.013 -0.20166,-0.014 -0.214973,0 -0.01013,0.01 0.01013,0.032 0,0.041 l -0.214973,0 -0.171979,0 c -0.01433,0 -0.03659,0.011 -0.04299,0 0,-0.2339 0.02866,-0.014 -0.04299,-0.082 -0.02027,-0.019 0.02026,-0.063 0,-0.082 -0.08896,-0.085 0.0035,0.1304 -0.08599,-0.041 -0.0064,-0.013 0.0064,-0.029 0,-0.041 -0.01812,-0.036 -0.06786,-0.048 -0.08599,-0.082 -0.0064,-0.013 0.01013,-0.032 0,-0.041 -0.01013,-0.011 -0.03286,0.011 -0.04299,0 -0.268262,-0.525 -0.412951,-0.5312 -0.68786,-0.945 -0.01013,-0.01 0.01013,-0.032 0,-0.041 -0.01013,-0.01 -0.03286,0.011 -0.04299,0 -0.01013,-0.01 0.01013,-0.032 0,-0.041 -0.02027,-0.019 -0.06572,0.019 -0.08599,0 -0.02027,-0.019 0.02027,-0.063 0,-0.082 -0.02027,-0.019 -0.06572,0.019 -0.08599,0 -0.02026,-0.019 0.02026,-0.063 0,-0.082 -0.02026,-0.019 -0.06573,0.019 -0.08599,0 -0.01013,-0.011 0.0064,-0.029 0,-0.041 -0.08947,-0.1716 0.003,0.044 -0.08599,-0.041 -0.01013,-0.01 0.01013,-0.032 0,-0.041 -0.01013,-0.011 -0.03286,0.01 -0.04299,0 0,-0.1101 0.01433,0.013 -0.04299,-0.041 -0.07167,-0.5723 -0.514018,-0.7381 -0.68789,-0.9041 -0.01013,-0.01 0,-0.028 0,-0.041 l 0,-0.041 c 0,-0.1143 -0.04299,0.032 -0.04299,-0.082 0,-0.014 0.0017,-0.1634 0,-0.1651 -0.01013,-0.011 -0.03286,0.011 -0.04299,0 -0.01013,-0.011 0,-0.028 0,-0.041 l 0,-0.2477 c 0,-0.014 0.01013,-0.032 0,-0.041 -0.01013,-0.011 -0.03286,0.01 -0.04299,0 -0.01013,-0.011 0,-0.028 0,-0.041 l 0,-0.041 0,-0.5777 c -0.04103,-0.091 0.05856,-0.084 0.08599,-0.124 0.01034,-0.01 -0.01034,-0.1551 0,-0.1651 0.01013,-0.01 0.03286,0.011 0.04299,0 0.01013,-0.01 0,-0.028 0,-0.041 l 0,-0.2888 0,-0.041 c 0,-0.014 0.01281,-0.035 0,-0.041 -0.02564,-0.013 -0.06036,0.013 -0.08599,0 -0.01785,-0.01 0.01501,-0.1094 0,-0.1239 -0.15341,-0.1049 -0.251203,-0.1922 -0.42992,-0.329 -0.01281,-0.01 -0.02866,0 -0.04299,0 l -0.04299,0 -0.257969,0 -0.04299,0 c -0.01433,0 -0.03658,-0.012 -0.04299,0 0,0.2339 0.02866,0.014 -0.04299,0.082 -0.05079,0.087 -0.21052,0.1154 -0.30095,0.165 -0.134818,0.1199 -0.320204,0.5909 -0.51588,1.1089 -0.009,0.017 -0.03393,0.024 -0.04299,0.041 -0.01282,0.025 0.01282,0.059 0,0.082 -0.009,0.017 -0.03393,0.024 -0.04299,0.041 -0.0057,0.011 0,0.1434 0,0.1651 l 0,0.4125 0,0.4952 0,0.042 c 0,0.014 0.01013,0.032 0,0.041 -0.01013,0.01 -0.03286,-0.011 -0.04299,0 -0.01013,0.01 0.0064,0.029 0,0.041 -0.009,0.017 -0.03393,0.024 -0.04299,0.041 -0.0064,0.012 0.01013,0.032 0,0.041 -0.01013,0.01 -0.03286,-0.011 -0.04299,0 -0.02027,0.019 0.02026,0.063 0,0.082 -0.01013,0.011 -0.03017,-0.01 -0.04299,0 -0.178933,0.086 0.04596,0 -0.04299,0.082 -0.290588,0.3845 -0.422708,0.4485 -0.644884,0.6998 -0.01013,0.01 0.01013,0.032 0,0.041 -0.0088,0.01 -0.111937,-0.01 -0.128985,0 -0.01812,0.01 -0.02487,0.033 -0.04299,0.042 -0.02564,0.012 -0.06036,-0.013 -0.08599,0 -0.01812,0.01 -0.02487,0.033 -0.04299,0.041 -0.01281,0.01 -0.02866,0 -0.04299,0 l -0.04299,0 -0.214973,0 -1.375832,0 -0.300963,0 c -0.01433,0 -0.03658,0.013 -0.04299,0 -0.01282,-0.025 0.01281,-0.059 0,-0.082 -0.01282,-0.025 -0.06035,0.013 -0.08599,0 -0.01812,-0.01 -0.02487,-0.033 -0.04299,-0.041 -0.02564,-0.013 -0.06036,0.013 -0.08599,0 -0.01812,-0.01 -0.02487,-0.033 -0.04299,-0.041 -0.02564,-0.012 -0.06036,0.013 -0.08599,0 -0.01812,-0.01 -0.02487,-0.033 -0.04299,-0.041 -0.375337,-0.074 -0.652069,-0.5472 -0.85986,-0.7824 -0.02027,-0.019 0.01281,-0.059 0,-0.082 -0.01812,-0.036 -0.06786,-0.048 -0.08599,-0.082 -0.0064,-0.011 0.01013,-0.032 0,-0.041 -0.01013,-0.01 -0.03286,0.01 -0.04299,0 -0.01013,-0.01 0.01013,-0.032 0,-0.041 -0.01013,-0.011 -0.03286,0.01 -0.04299,0 -0.01013,-0.011 0.01013,-0.032 0,-0.041 -0.01013,-0.01 -0.03286,0.01 -0.04299,0 -0.01013,-0.01 0.0064,-0.029 0,-0.042 -0.0041,-0.01 -0.163749,-0.161 -0.171978,-0.165 -0.01282,-0.01 -0.03286,0.01 -0.04299,0 -0.01013,-0.01 0.01013,-0.032 0,-0.041 -0.01013,-0.011 -0.03017,0.01 -0.04299,0 -0.03626,-0.017 -0.04974,-0.065 -0.08599,-0.082 -0.01282,-0.01 -0.03286,0.01 -0.04299,0 -0.322094,-0.247 -0.425783,-0.5555 -0.64487,-0.944 -0.01013,-0.011 -0.03286,0.01 -0.04299,0 -0.01013,-0.011 0.0065,-0.029 0,-0.041 -0.1288583,-0.1531 -0.1237136,-0.1888 -0.21497,-0.328 -0.01013,-0.01 -0.03286,0.011 -0.04299,0 -0.02027,-0.019 0.02027,-0.063 0,-0.082 l -0.1289835,0 -0.042995,0 c -0.014332,0 -0.030176,0.01 -0.042995,0 -0.018128,-0.01 -0.024867,-0.033 -0.042995,-0.041 -0.011116,-0.01 -0.2274936,0 -0.2579683,0 l -0.042995,0 c -0.014332,0 -0.03286,0.01 -0.042995,0 -0.010134,-0.011 0.012819,-0.036 0,-0.041 -0.025638,-0.013 -0.057327,0 -0.08599,0 l -0.2579683,0 -0.3869525,0 -0.042995,0 c -0.014332,0 -0.036585,-0.013 -0.042995,0 -0.012819,0.025 0.012819,0.058 0,0.082 -0.00642,0.013 -0.032861,-0.011 -0.042995,0 -0.065016,0.1025 -0.1816987,0.1451 -0.25797,0.206 -0.010135,0.01 0,0.028 0,0.041 l 0,0.041 c 0,0.014 0.010134,0.032 0,0.042 -0.010135,0.01 -0.049404,-0.013 -0.042995,0 0.032046,0.061 0.08599,0.11 0.1289843,0.165 z"
       id="path4980"
       inkscape:connector-curvature="0"
       sodipodi:nodetypes="ccccccccccccccccccsccsccsscccccccsccccsccsccccccscscscccccsccccccccccccsccccccsccccccccccccccccccccccccsccsccccsscccccccsccsccscccccccscccscccccccccccccccssccsccscccccccccsccccsscccsccccccsccscccscccccssccsccscsccccsccccccccccccsscscccccccssscsssccscccccscsccccsccscccccccsccscccccccccccccccscccsccccccccccccscccsccscccccccccccsccssccsccsccccsscccc" />
    <path
       style="fill:#338000;fill-rule:evenodd;stroke:none;stroke-width:1px;stroke-linecap:butt;stroke-linejoin:miter;stroke-opacity:1"
       d="m 13.125,1040.4872 c -0.09012,0.2662 0.18994,-0.067 0.223214,0 0.01331,0.027 -0.01331,0.063 0,0.089 0.01331,0.027 0.06824,-0.021 0.08929,0 0.01052,0.011 -0.0067,0.031 0,0.045 0.04935,0.099 0.02771,0.014 0.08929,0.045 0.185793,0.093 -0.04772,-0 0.04464,0.089 0.01052,0.01 0.03133,-0.01 0.04464,0 0.01882,0.01 0.02976,0.03 0.04464,0.045 0.01488,0.015 0.03523,0.026 0.04464,0.045 0.0067,0.013 -0.01052,0.034 0,0.045 0.02105,0.021 0.06824,-0.021 0.08929,0 0.01052,0.011 -0.0067,0.031 0,0.045 0.0094,0.019 0.03523,0.026 0.04464,0.045 0.0067,0.013 -0.01052,0.034 0,0.045 0.01052,0.011 0.03412,-0.01 0.04464,0 0.01052,0.011 -0.0067,0.031 0,0.045 0.0094,0.019 0.03523,0.026 0.04464,0.045 0.0067,0.013 -0.01052,0.034 0,0.045 0.01052,0.011 0.03412,-0.01 0.04464,0 0.02104,0.021 -0.02105,0.068 0,0.089 0.01052,0.01 0.03133,-0.01 0.04464,0 0.185793,0.093 -0.04772,-0 0.04464,0.089 0.01052,0.011 0.03412,-0.01 0.04464,0 0,0.119 -0.01488,-0.015 0.04464,0.045 0.02105,0.021 -0.02104,0.068 0,0.089 0.01052,0.011 0.03412,-0.01 0.04464,0 0.01052,0.011 -0.01052,0.034 0,0.045 0.01052,0.011 0.03412,-0.01 0.04464,0 0.02105,0.021 -0.02104,0.068 0,0.089 0.01052,0.011 0.03412,-0.011 0.04464,0 0.01567,0.016 -0.01542,0.1923 0,0.2232 0.0094,0.019 0.03523,0.026 0.04464,0.045 0.0081,0.016 0,0.1922 0,0.2232 0,0.1935 0,0.3869 0,0.5804 0,0.1637 0,0.3274 0,0.4911 0,0.012 0.0074,0.1302 0,0.1339 -0.02662,0.013 -0.06267,-0.013 -0.08929,0 -0.01331,0.01 0.01052,0.034 0,0.045 -0.01052,0.011 -0.03412,-0.01 -0.04464,0 -0.02105,0.021 0.02104,0.068 0,0.089 -0.01052,0.01 -0.03412,-0.011 -0.04464,0 -0.01052,0.01 0.01052,0.034 0,0.045 -0.01052,0.011 -0.03412,-0.011 -0.04464,0 -0.01052,0.011 0.01052,0.034 0,0.045 -0.01052,0.011 -0.02976,0 -0.04464,0 0,0.015 0.0067,0.031 0,0.045 -0.0929,0.1858 0.0031,-0.048 -0.08929,0.045 -0.01052,0.01 0.0067,0.031 0,0.045 -0.0929,0.1858 0.0031,-0.048 -0.08929,0.045 -0.01052,0.011 0.01052,0.034 0,0.045 -0.02105,0.021 -0.06824,-0.021 -0.08929,0 -0.01052,0.01 0.01052,0.034 0,0.045 -0.02105,0.021 -0.06824,-0.021 -0.08929,0 -0.01052,0.011 0.01052,0.034 0,0.045 -0.02104,0.021 -0.06824,-0.021 -0.08929,0 -0.01052,0.011 0.01052,0.034 0,0.045 -0.01052,0.01 -0.03412,-0.011 -0.04464,0 -0.01052,0.01 0.01052,0.034 0,0.045 -0.02105,0.021 -0.06824,-0.021 -0.08929,0 -0.01052,0.01 0.01052,0.034 0,0.045 -0.01052,0.011 -0.03412,-0.01 -0.04464,0 -0.01052,0.011 0.01052,0.034 0,0.045 -0.02232,0.022 -0.111607,-0.022 -0.133929,0 -0.01052,0.011 0.01052,0.034 0,0.045 -0.01052,0.01 -0.03412,-0.011 -0.04464,0 -0.01052,0.01 0.01052,0.034 0,0.045 -0.09237,0.092 0.0036,-0.1411 -0.08929,0.045 -0.0067,0.013 0.01052,0.034 0,0.045 -0.02105,0.021 -0.06824,-0.021 -0.08929,0 -0.02104,0.021 0.02105,0.068 0,0.089 -0.01052,0.011 -0.03412,-0.01 -0.04464,0 -0.02232,0.022 0.02232,0.1116 0,0.1339 -0.01052,0.011 -0.03412,-0.011 -0.04464,0 -0.01052,0.011 0,0.03 0,0.045 0,0.015 0,0.03 0,0.045 0,0.015 0,0.03 0,0.045 0,0.015 0.01052,0.034 0,0.045 -0.01052,0.011 -0.03412,-0.01 -0.04464,0 -0.01567,0.016 0.01542,0.1924 0,0.2232 -0.0094,0.019 -0.03523,0.026 -0.04464,0.045 -0.0068,0.014 0,0.1139 0,0.134 0,0.089 0,0.1785 0,0.2678 0,0.031 0.0081,0.2071 0,0.2232 -0.0094,0.019 -0.03523,0.026 -0.04464,0.045 -0.0058,0.012 0,0.2362 0,0.2678 0,0.1935 0,0.3869 0,0.5804 0,0.074 0,0.1488 0,0.2232 0,0.015 -0.01052,0.034 0,0.045 0.02353,0.024 0.06576,0.021 0.08929,0.045 0.01052,0.01 -0.01052,0.034 0,0.045 0.01052,0.01 0.03412,-0.011 0.04464,0 0.02232,0.022 -0.02232,0.1116 0,0.1339 0.01052,0.011 0.03133,-0.01 0.04464,0 0.04393,0.022 0.134642,0.1567 0.178572,0.1786 0.01331,0.01 0.03412,-0.011 0.04464,0 0.01052,0.01 -0.01052,0.034 0,0.045 0.01052,0.011 0.03412,-0.011 0.04464,0 0.01052,0.011 -0.01052,0.034 0,0.045 0.01052,0.011 0.03412,-0.01 0.04464,0 0.01052,0.011 -0.01052,0.034 0,0.045 0.01052,0.011 0.03133,-0.01 0.04464,0 0.01882,0.01 0.02582,0.035 0.04464,0.045 0.01331,0.01 0.03133,-0.01 0.04464,0 0.01882,0.01 0.02976,0.03 0.04464,0.045 0.01488,0.015 0.03523,0.026 0.04464,0.045 0.0067,0.013 -0.01052,0.034 0,0.045 0.01052,0.01 0.03412,-0.011 0.04464,0 0.09237,0.092 -0.14115,-0 0.04464,0.089 0.01331,0.01 0.03412,-0.01 0.04464,0 0.02105,0.021 -0.02104,0.068 0,0.089 0.01052,0.011 0.03412,-0.011 0.04464,0 0.02105,0.021 -0.02105,0.068 0,0.089 0.01052,0.01 0.03412,-0.011 0.04464,0 0.02104,0.021 -0.01331,0.063 0,0.089 0.0094,0.019 0.03523,0.026 0.04464,0.045 0.0067,0.013 0,0.03 0,0.045 0.01488,0.015 0.03523,0.026 0.04464,0.045 0.0067,0.013 0,0.03 0,0.045 0,0.015 0,0.03 0,0.045 0,0.074 0,0.1488 0,0.2232 0,0.012 0.0074,0.1302 0,0.1339 -0.02662,0.013 -0.06267,-0.013 -0.08929,0 -0.01331,0.01 -0.01331,0.038 0,0.045 0.02662,0.013 0.05952,0 0.08929,0 0.01488,0 0.03412,-0.011 0.04464,0 0.01052,0.011 -0.01052,0.034 0,0.045 0.0014,0 0.123102,0 0.133929,0 0.100446,0 -0.0074,0.015 0.04464,-0.089 0.0067,-0.013 0.03412,0.01 0.04464,0 0.01052,-0.011 -0.01052,-0.034 0,-0.045 0.01052,-0.01 0.03412,0.011 0.04464,0 0.02104,-0.021 -0.01331,-0.063 0,-0.089 0.0929,-0.1858 -0.0031,0.048 0.08929,-0.045 0.02104,-0.021 -0.02105,-0.068 0,-0.089 0.01052,-0.011 0.03412,0.011 0.04464,0 0.01052,-0.011 -0.01052,-0.034 0,-0.045 0.01052,-0.011 0.02976,0 0.04464,0 0,-0.015 -0.0067,-0.031 0,-0.045 0.0929,-0.1857 -0.0031,0.048 0.08929,-0.045 0.02105,-0.021 -0.02104,-0.068 0,-0.089 0.01052,-0.011 0.03412,0.01 0.04464,0 0.01052,-0.011 -0.01052,-0.034 0,-0.045 0.01052,-0.01 0.03412,0.011 0.04464,0 0.01052,-0.01 -0.01052,-0.034 0,-0.045 0.01052,-0.011 0.03412,0.011 0.04464,0 0.09237,-0.092 -0.14115,0 0.04464,-0.089 0.01331,-0.01 0.03412,0.011 0.04464,0 0.01052,-0.01 -0.01052,-0.034 0,-0.045 0.02105,-0.021 0.06824,0.021 0.08929,0 0.09237,-0.092 -0.14115,0 0.04464,-0.089 0.01331,-0.01 0.03133,0.01 0.04464,0 0.01882,-0.01 0.02582,-0.035 0.04464,-0.045 0.01331,-0.01 0.03412,0.011 0.04464,0 0.09237,-0.092 -0.14115,0 0.04464,-0.089 0.01331,-0.01 0.02976,0 0.04464,0 0.01488,-0.015 0.02582,-0.035 0.04464,-0.045 0.02662,-0.013 0.06824,0.021 0.08929,0 0.01052,-0.01 -0.01052,-0.034 0,-0.045 0.02105,-0.021 0.06824,0.021 0.08929,0 0.01052,-0.01 -0.01052,-0.034 0,-0.045 0.02232,-0.022 0.111607,0.022 0.133929,0 0.01052,-0.011 -0.01052,-0.034 0,-0.045 0.02105,-0.021 0.06824,0.021 0.08929,0 0.01052,-0.011 -0.01052,-0.034 0,-0.045 0.01074,-0.011 0.167829,0.011 0.178572,0 0.01052,-0.01 -0.01052,-0.034 0,-0.045 0.02104,-0.021 0.06267,0.013 0.08929,0 0.01882,-0.01 0.02582,-0.035 0.04464,-0.045 0.02806,-0.014 0.150513,0.014 0.178572,0 0.01882,-0.01 0.02582,-0.035 0.04464,-0.045 0.01174,-0.01 0.155227,0 0.178571,0 0.133929,0 0.267857,0 0.401786,0 0.01188,0 0.130242,-0.01 0.133928,0 0.01331,0.027 -0.01331,0.063 0,0.089 0.01331,0.027 0.06267,-0.013 0.08929,0 0.01882,0.01 0.02582,0.035 0.04464,0.045 0.0177,0.01 0.124802,-0.01 0.133929,0 0.01052,0.011 -0.01052,0.034 0,0.045 0.01074,0.011 0.167829,-0.011 0.178571,0 0.01052,0.011 -0.01052,0.034 0,0.045 0.01052,0.011 0.03133,-0.01 0.04464,0 0.01882,0.01 0.02582,0.035 0.04464,0.045 0.01331,0.01 0.02976,0 0.04464,0 0.01488,0 0.02976,0 0.04464,0 0.0744,0 0.14881,0 0.223215,0 0.01488,0 0.02976,0 0.04464,0 0.01488,0 0.03799,0.013 0.04464,0 0.01331,-0.027 -0.01331,-0.063 0,-0.089 0.01331,-0.027 0.06824,0.021 0.08929,0 0.01052,-0.011 -0.01052,-0.034 0,-0.045 0.02105,-0.021 0.06824,0.021 0.08929,0 0.01052,-0.01 -0.01052,-0.034 0,-0.045 0.02232,-0.022 0.111607,0.022 0.133928,0 0.01052,-0.011 -0.01052,-0.034 0,-0.045 0.02232,-0.022 0.111608,0.022 0.133929,0 0.01052,-0.011 -0.01052,-0.034 0,-0.045 0.02105,-0.021 0.06824,0.021 0.08929,0 0.01052,-0.011 -0.01052,-0.034 0,-0.045 0.02104,-0.021 0.06824,0.021 0.08929,0 0.01052,-0.01 -0.01052,-0.034 0,-0.045 0.01052,-0.011 0.03412,0.011 0.04464,0 0.01052,-0.011 -0.0067,-0.031 0,-0.045 0.0094,-0.019 0.03523,-0.026 0.04464,-0.045 0.0068,-0.014 0,-0.1138 0,-0.1339 0,-0.089 0,-0.1786 0,-0.2679 0,-0.02 -0.0068,-0.1203 0,-0.1339 0.0094,-0.019 0.03523,-0.026 0.04464,-0.045 0.01542,-0.031 -0.01567,-0.2076 0,-0.2233 0.01052,-0.01 0.03412,0.011 0.04464,0 0.01382,-0.014 -0.01382,-0.2094 0,-0.2232 0.01052,-0.011 0.03412,0.01 0.04464,0 0.02104,-0.021 -0.01331,-0.063 0,-0.089 0.0094,-0.019 0.03523,-0.026 0.04464,-0.045 0.01331,-0.027 -0.02104,-0.068 0,-0.089 0.01052,-0.01 0.03412,0.011 0.04464,0 0.02232,-0.022 -0.02232,-0.1116 0,-0.1339 0.01052,-0.011 0.03412,0.01 0.04464,0 0.02105,-0.021 -0.01331,-0.063 0,-0.089 0.0094,-0.019 0.03523,-0.026 0.04464,-0.045 0.0067,-0.013 -0.0067,-0.031 0,-0.045 0.0929,-0.1858 -0.0031,0.048 0.08929,-0.045 0.02105,-0.021 -0.02105,-0.068 0,-0.089 0.01052,-0.011 0.03412,0.01 0.04464,0 0.01052,-0.011 -0.01052,-0.034 0,-0.045 0.01052,-0.01 0.03412,0.011 0.04464,0 0.02232,-0.022 -0.02232,-0.1116 0,-0.1339 0.02104,-0.021 0.06824,0.021 0.08929,0 0.02105,-0.021 -0.02104,-0.068 0,-0.089 0.09237,-0.092 -0.0036,0.1412 0.08929,-0.045 0.0067,-0.013 -0.01052,-0.034 0,-0.045 0.02105,-0.021 0.06267,0.013 0.08929,0 0.185793,-0.093 -0.04772,0 0.04464,-0.089 0.02104,-0.021 0.06824,0.021 0.08929,0 0.09237,-0.092 -0.14115,0 0.04464,-0.089 0.01331,-0.01 0.03412,0.011 0.04464,0 0.01052,-0.011 -0.01052,-0.034 0,-0.045 0.01052,-0.011 0.03133,0.01 0.04464,0 0.04393,-0.022 0.134641,-0.1566 0.178571,-0.1786 0.01331,-0.01 0.03412,0.011 0.04464,0 0.01052,-0.011 -0.01052,-0.034 0,-0.045 0.02105,-0.021 0.06824,0.021 0.08929,0 0.01052,-0.01 -0.0067,-0.031 0,-0.045 0.04935,-0.099 0.02771,-0.014 0.08929,-0.045 0.05357,-0.027 0.08036,-0.1071 0.133928,-0.1339 0.01331,-0.01 0.03133,0.01 0.04464,0 0.08219,-0.041 0.0071,-0.093 0.08929,-0.1339 0.01331,-0.01 0.03133,0.01 0.04464,0 0.01882,-0.01 0.02582,-0.035 0.04464,-0.045 0.01331,-0.01 0.03412,0.011 0.04464,0 0.01052,-0.011 -0.0067,-0.031 0,-0.045 0.0094,-0.019 0.02976,-0.03 0.04464,-0.045 0.01488,-0.015 0.02582,-0.035 0.04464,-0.045 0.01331,-0.01 0.03412,0.011 0.04464,0 0.01052,-0.011 -0.01052,-0.034 0,-0.045 0.02105,-0.021 0.06824,0.021 0.08929,0 0.01052,-0.011 -0.0067,-0.031 0,-0.045 0.0929,-0.1858 -0.0031,0.048 0.08929,-0.045 0.01052,-0.01 -0.01052,-0.034 0,-0.045 0.01052,-0.011 0.03133,0.01 0.04464,0 0.01882,-0.01 0.02582,-0.035 0.04464,-0.045 0.01331,-0.01 0.03412,0.01 0.04464,0 0.01052,-0.011 -0.01052,-0.034 0,-0.045 0.01052,-0.01 0.03412,0.011 0.04464,0 0.01052,-0.01 -0.01052,-0.034 0,-0.045 0.09237,-0.092 -0.0036,0.1412 0.08929,-0.045 0.0067,-0.013 -0.01052,-0.034 0,-0.045 0.02104,-0.021 0.06824,0.021 0.08929,0 0.01052,-0.011 -0.01052,-0.034 0,-0.045 0.01052,-0.01 0.03412,0.011 0.04464,0 0.01052,-0.01 -0.01052,-0.034 0,-0.045 0.02105,-0.021 0.06824,0.021 0.08929,0 0.01052,-0.011 -0.01052,-0.034 0,-0.045 0.02104,-0.021 0.06824,0.021 0.08929,0 0.01052,-0.011 -0.01052,-0.034 0,-0.045 0.01074,-0.011 0.167829,0.011 0.178572,0 0.01052,-0.01 -0.01052,-0.034 0,-0.045 0.02232,-0.022 0.111607,0.022 0.133928,0 0.01052,-0.011 -0.01052,-0.034 0,-0.045 0.02232,-0.022 0.111608,0.022 0.133929,0 0.01052,-0.011 -0.01052,-0.034 0,-0.045 0.02105,-0.021 0.06824,0.021 0.08929,0 0.01052,-0.01 -0.01052,-0.034 0,-0.045 0.01567,-0.016 0.192378,0.015 0.223214,0 0.01882,-0.01 0.02582,-0.035 0.04464,-0.045 0.0177,-0.01 0.124802,0.01 0.133928,0 0.01052,-0.011 -0.01052,-0.034 0,-0.045 0.0018,-0 0.162177,0 0.178572,0 0.104167,0 0.208333,0 0.3125,0 0.01488,0 0.03799,-0.013 0.04464,0 0.01331,0.027 -0.01331,0.063 0,0.089 0.0024,0 0.169321,-0.01 0.178571,0 0.01052,0.011 -0.01052,0.034 0,0.045 0.02105,0.021 0.06824,-0.021 0.08929,0 0.01052,0.011 -0.01052,0.034 0,0.045 0.01052,0.01 0.02976,0 0.04464,0 0.0744,0 0.148809,0 0.223214,0 0.01488,0 0.03412,-0.011 0.04464,0 0.01052,0.01 -0.01052,0.034 0,0.045 0.01052,0.011 0.02976,0 0.04464,0 0.104166,0 0.208333,0 0.3125,0 0.01488,0 0.02976,0 0.04464,0 0.01488,0 0.03412,-0.011 0.04464,0 0.01052,0.011 -0.01052,0.034 0,0.045 0.01052,0.011 0.02976,0 0.04464,0 0.07441,0 0.14881,0 0.223215,0 0.104166,0 0.208333,0 0.3125,0 0.01488,0 0.03412,0.011 0.04464,0 0.02353,-0.024 0.02111,-0.066 0.04464,-0.089 0.02105,-0.021 0.06824,0.021 0.08929,0 0.01052,-0.011 -0.01052,-0.034 0,-0.045 0.01052,-0.01 0.03133,0.01 0.04464,0 0.01882,-0.01 0.02582,-0.035 0.04464,-0.045 0.01331,-0.01 0.03412,0.011 0.04464,0 0.01052,-0.01 -0.01052,-0.034 0,-0.045 0.01052,-0.011 0.03133,0.01 0.04464,0 0.01882,-0.01 0.02582,-0.035 0.04464,-0.045 0.02662,-0.013 0.06824,0.021 0.08929,0 0.01052,-0.011 -0.01052,-0.034 0,-0.045 0.01052,-0.01 0.03412,0.011 0.04464,0 0.01052,-0.01 -0.01052,-0.034 0,-0.045 0.01052,-0.011 0.03412,0.011 0.04464,0 0.01052,-0.011 -0.01052,-0.034 0,-0.045 0.01052,-0.011 0.03412,0.011 0.04464,0 0.01052,-0.011 -0.01052,-0.034 0,-0.045 0.01052,-0.01 0.02976,0 0.04464,0 0.08929,0 0.178571,0 0.267857,0 0.01488,0 0.03412,0.011 0.04464,0 0.01052,-0.01 -0.01052,-0.034 0,-0.045 0.01052,-0.011 0.03412,0.011 0.04464,0 0.01052,-0.011 -0.01052,-0.034 0,-0.045 0.01052,-0.011 0.03412,0.01 0.04464,0 0.01052,-0.011 -0.0067,-0.031 0,-0.045 0.0094,-0.019 0.03523,-0.026 0.04464,-0.045 0.0067,-0.013 -0.0067,-0.031 0,-0.045 0.0929,-0.1858 -0.0031,0.048 0.08929,-0.045 0.01074,-0.011 -0.01074,-0.1679 0,-0.1786 0.01052,-0.011 0.03412,0.01 0.04464,0 0.02232,-0.022 -0.02232,-0.1116 0,-0.1339 0.01052,-0.011 0.03412,0.01 0.04464,0 0.002,-0 0,-0.2022 0,-0.2233 0,-0.016 -0.0018,-0.1767 0,-0.1785 0.05952,-0.06 0.04464,0.074 0.04464,-0.045 0,-0.119 0,-0.2381 0,-0.3571 0,-0.015 0,-0.03 0,-0.045 0,-0.015 -0.01052,-0.034 0,-0.045 0.01052,-0.011 0.03412,0.011 0.04464,0 0.01222,-0.012 -0.01211,-0.1544 0,-0.1786 0.0094,-0.019 0.03523,-0.026 0.04464,-0.045 0.01331,-0.027 -0.02105,-0.068 0,-0.089 0.01052,-0.011 0.03412,0.011 0.04464,0 0.0091,-0.01 -0.0088,-0.1162 0,-0.1339 0.0094,-0.019 0.03523,-0.026 0.04464,-0.045 0.01211,-0.024 -0.01222,-0.1663 0,-0.1785 0.01052,-0.011 0.03412,0.01 0.04464,0 0.01074,-0.011 -0.01074,-0.1679 0,-0.1786 0.01052,-0.011 0.03412,0.01 0.04464,0 0.0091,-0.01 -0.0089,-0.1162 0,-0.1339 0.0094,-0.019 0.03523,-0.026 0.04464,-0.045 0.0058,-0.011 0,-0.2362 0,-0.2678 0,-0.1935 0,-0.3869 0,-0.5804 0,-0.074 0,-0.1488 0,-0.2232 0,-0.015 0.01331,-0.038 0,-0.045 -0.252976,0 -0.01488,0.03 -0.08929,-0.045 -0.01052,-0.011 -0.03412,0.011 -0.04464,0 -0.02105,-0.021 0.01331,-0.063 0,-0.089 -0.0094,-0.019 -0.03523,-0.026 -0.04464,-0.045 -0.01331,-0.027 0.02105,-0.068 0,-0.089 -0.01052,-0.011 -0.03412,0.01 -0.04464,0 -0.01052,-0.011 0.01052,-0.034 0,-0.045 -0.01052,-0.011 -0.03412,0.011 -0.04464,0 -0.01052,-0.011 0.01052,-0.034 0,-0.045 -0.01052,-0.011 -0.03412,0.011 -0.04464,0 -0.01052,-0.011 0.01052,-0.034 0,-0.045 -0.01052,-0.011 -0.03412,0.01 -0.04464,0 -0.01052,-0.011 0.01052,-0.034 0,-0.045 -0.01052,-0.01 -0.03412,0.011 -0.04464,0 -0.01052,-0.01 0.01052,-0.034 0,-0.045 -0.01052,-0.01 -0.03412,0.011 -0.04464,0 -0.01052,-0.01 0.01052,-0.034 0,-0.045 -0.02105,-0.021 -0.06824,0.021 -0.08929,0 0,-0.1191 0.01488,0.015 -0.04464,-0.045 -0.01052,-0.011 0.01052,-0.034 0,-0.045 -0.02232,-0.022 -0.111607,0.022 -0.133928,0 -0.02104,-0.021 0.02104,-0.068 0,-0.089 -0.02232,-0.022 -0.111607,0.022 -0.133929,0 -0.01052,-0.011 0.01052,-0.034 0,-0.045 -0.01052,-0.01 -0.03412,0.011 -0.04464,0 -0.01052,-0.01 0.01052,-0.034 0,-0.045 -0.02105,-0.021 -0.06824,0.021 -0.08929,0 -0.01052,-0.01 0.01052,-0.034 0,-0.045 -0.01052,-0.011 -0.03133,0.01 -0.04464,0 -0.01882,-0.01 -0.02582,-0.035 -0.04464,-0.045 -0.01331,-0.01 -0.03412,0.01 -0.04464,0 -0.01052,-0.011 0.01052,-0.034 0,-0.045 -0.01052,-0.01 -0.03412,0.011 -0.04464,0 -0.01052,-0.01 0.01052,-0.034 0,-0.045 -0.02232,-0.022 -0.111607,0.022 -0.133928,0 -0.01052,-0.011 0.01052,-0.034 0,-0.045 -0.01052,-0.011 -0.03412,0.01 -0.04464,0 -0.02104,-0.021 0.02104,-0.068 0,-0.089 -0.02104,-0.021 -0.06824,0.021 -0.08929,0 -0.02105,-0.021 0.02105,-0.068 0,-0.089 -0.01052,-0.011 -0.03412,0.01 -0.04464,0 -0.01052,-0.011 0.01052,-0.034 0,-0.045 -0.01052,-0.01 -0.03412,0.011 -0.04464,0 -0.02105,-0.021 0.02105,-0.068 0,-0.089 -0.01052,-0.011 -0.03412,0.01 -0.04464,0 -0.01052,-0.011 0.01052,-0.034 0,-0.045 -0.01052,-0.011 -0.03412,0.01 -0.04464,0 -0.02104,-0.021 0.02104,-0.068 0,-0.089 -0.01052,-0.011 -0.03412,0.011 -0.04464,0 -0.02232,-0.022 0.02232,-0.1116 0,-0.134 -0.01052,-0.011 -0.03412,0.011 -0.04464,0 -0.01052,-0.011 0.0067,-0.031 0,-0.045 -0.0094,-0.019 -0.03523,-0.026 -0.04464,-0.045 -0.01331,-0.027 0.02105,-0.068 0,-0.089 -0.01052,-0.011 -0.03412,0.011 -0.04464,0 -0.01052,-0.011 0.01052,-0.034 0,-0.045 -0.01052,-0.011 -0.03412,0.01 -0.04464,0 -0.02232,-0.022 0.02232,-0.1116 0,-0.1339 -0.01052,-0.011 -0.03412,0.01 -0.04464,0 -0.01052,-0.011 0.01052,-0.034 0,-0.045 -0.01052,-0.011 -0.02976,0 -0.04464,0 -0.01488,0 -0.02976,0 -0.04464,0 -0.119048,0 0.01488,0.015 -0.04464,-0.045 -0.01222,-0.012 -0.154353,0.012 -0.178572,0 -0.01882,-0.01 -0.02582,-0.035 -0.04464,-0.045 -0.02662,-0.013 -0.06267,0.013 -0.08929,0 -0.01882,-0.01 -0.02582,-0.035 -0.04464,-0.045 -0.01331,-0.01 -0.02976,0 -0.04464,0 -0.01488,0 -0.02976,0 -0.04464,0 -0.0744,0 -0.148809,0 -0.223214,0 -0.01488,0 -0.02976,0 -0.04464,0 -0.01488,0 -0.03133,0.01 -0.04464,0 -0.01882,-0.01 -0.02582,-0.035 -0.04464,-0.045 -0.01331,-0.01 -0.02976,0 -0.04464,0 -0.02976,0 -0.05952,0 -0.08929,0 -0.104167,0 -0.208334,0 -0.3125,0 -0.07441,0 -0.14881,0 -0.223215,0 -0.01488,0 -0.03412,-0.01 -0.04464,0 -0.02353,0.024 -0.02111,0.066 -0.04464,0.089 -0.0091,0.01 -0.116228,-0.01 -0.133929,0 -0.01882,0.01 -0.02582,0.035 -0.04464,0.045 -0.01331,0.01 -0.03412,-0.01 -0.04464,0 -0.01052,0.011 0.01052,0.034 0,0.045 -0.02104,0.021 -0.06824,-0.021 -0.08929,0 -0.01052,0.01 0.01052,0.034 0,0.045 -0.01052,0.01 -0.03133,-0.01 -0.04464,0 -0.03765,0.019 -0.05164,0.071 -0.08929,0.089 -0.01331,0.01 -0.03412,-0.01 -0.04464,0 -0.01052,0.011 0.01052,0.034 0,0.045 -0.01052,0.011 -0.03412,-0.011 -0.04464,0 -0.01052,0.011 0.01052,0.034 0,0.045 -0.01052,0.011 -0.03133,-0.01 -0.04464,0 -0.01185,0.01 -0.128002,0.1221 -0.133929,0.1339 -0.0067,0.013 0.01052,0.034 0,0.045 -0.02105,0.021 -0.06824,-0.021 -0.08929,0 -0.02232,0.022 0.02232,0.1117 0,0.134 -0.01052,0.011 -0.03412,-0.011 -0.04464,0 -0.01052,0.011 0.01052,0.034 0,0.045 -0.01052,0.011 -0.03412,-0.01 -0.04464,0 -0.02104,0.021 0.02104,0.068 0,0.089 -0.01052,0.01 -0.03412,-0.011 -0.04464,0 -0.01052,0.01 0.01052,0.034 0,0.045 -0.01052,0.011 -0.03412,-0.011 -0.04464,0 -0.01052,0.011 0.01052,0.034 0,0.045 -0.01052,0.011 -0.03412,-0.01 -0.04464,0 -0.01052,0.011 0.01052,0.034 0,0.045 -0.01052,0.01 -0.03412,-0.011 -0.04464,0 -0.02105,0.021 0.02105,0.068 0,0.089 -0.01052,0.011 -0.03412,-0.01 -0.04464,0 -0.02104,0.021 0.02105,0.068 0,0.089 -0.02104,0.021 -0.06824,-0.021 -0.08929,0 -0.02104,0.021 0.02104,0.068 0,0.089 -0.01052,0.011 -0.03412,-0.01 -0.04464,0 -0.01052,0.011 0.01052,0.034 0,0.045 -0.01052,0.011 -0.03412,-0.011 -0.04464,0 -0.02105,0.021 0.02105,0.068 0,0.089 -0.01052,0.011 -0.03412,-0.01 -0.04464,0 -0.01052,0.011 0.0067,0.031 0,0.045 -0.0929,0.1858 0.0031,-0.048 -0.08929,0.045 -0.01052,0.01 0.01052,0.034 0,0.045 -0.09237,0.092 0.0036,-0.1411 -0.08929,0.045 -0.0067,0.013 0.01052,0.034 0,0.045 -0.01052,0.01 -0.03133,-0.01 -0.04464,0 -0.04393,0.022 -0.134642,0.1566 -0.178572,0.1786 -0.01331,0.01 -0.03412,-0.011 -0.04464,0 -0.01052,0.01 0.01052,0.034 0,0.045 -0.01052,0.011 -0.03412,-0.011 -0.04464,0 -0.01052,0.011 0.01052,0.034 0,0.045 -0.09237,0.092 0.0036,-0.1412 -0.08929,0.045 -0.0067,0.013 0.01052,0.034 0,0.045 -0.01052,0.011 -0.03133,-0.01 -0.04464,0 -0.01185,0.01 -0.128002,0.122 -0.133929,0.1339 -0.0067,0.013 0.01052,0.034 0,0.045 -0.09237,0.092 0.0036,-0.1411 -0.08929,0.045 -0.0067,0.013 0.01052,0.034 0,0.045 -0.01052,0.01 -0.03133,-0.01 -0.04464,0 -0.01882,0.01 -0.02582,0.035 -0.04464,0.045 -0.01331,0.01 -0.03412,-0.011 -0.04464,0 -0.01052,0.011 0.01052,0.034 0,0.045 -0.01052,0.011 -0.03412,-0.01 -0.04464,0 -0.01052,0.011 0.01052,0.034 0,0.045 -0.01052,0.011 -0.03133,-0.01 -0.04464,0 -0.01882,0.01 -0.02582,0.035 -0.04464,0.045 -0.01331,0.01 -0.03412,-0.011 -0.04464,0 -0.01052,0.01 0.0067,0.031 0,0.045 -0.0929,0.1858 0.0031,-0.048 -0.08929,0.045 -0.01052,0.011 0.01052,0.034 0,0.045 -0.01052,0.01 -0.03412,-0.011 -0.04464,0 -0.01052,0.01 0.01052,0.034 0,0.045 -0.09237,0.092 0.0036,-0.1411 -0.08929,0.045 -0.0067,0.013 0.01052,0.034 0,0.045 -0.01052,0.011 -0.03133,-0.01 -0.04464,0 -0.01882,0.01 -0.02582,0.035 -0.04464,0.045 -0.01331,0.01 -0.03412,-0.011 -0.04464,0 -0.01052,0.011 0.01052,0.034 0,0.045 -0.01052,0.011 -0.03133,-0.01 -0.04464,0 -0.01882,0.01 -0.02582,0.035 -0.04464,0.045 -0.01331,0.01 -0.03412,-0.01 -0.04464,0 -0.01052,0.011 0.01052,0.034 0,0.045 -0.01052,0.01 -0.03133,-0.01 -0.04464,0 -0.01882,0.01 -0.02582,0.035 -0.04464,0.045 -0.01331,0.01 -0.03412,-0.011 -0.04464,0 -0.01052,0.01 0.01052,0.034 0,0.045 -0.02105,0.021 -0.06824,-0.021 -0.08929,0 -0.01052,0.011 0.01052,0.034 0,0.045 -0.01052,0.011 -0.03133,-0.01 -0.04464,0 -0.01882,0.01 -0.02582,0.035 -0.04464,0.045 -0.01359,0.01 -0.113823,0 -0.133928,0 -0.104167,0 -0.208334,0 -0.3125,0 -0.01488,0 -0.02976,0 -0.04464,0 -0.01488,0 -0.03412,0.01 -0.04464,0 -0.02353,-0.024 -0.02111,-0.066 -0.04464,-0.089 -0.01567,-0.016 -0.192378,0.015 -0.223214,0 -0.01882,-0.01 -0.02582,-0.035 -0.04464,-0.045 -0.02422,-0.012 -0.166356,0.012 -0.178571,0 -0.01052,-0.011 0.01052,-0.034 0,-0.045 -0.0087,-0.01 -0.206913,0.01 -0.223215,0 -0.01331,-0.01 0.01052,-0.034 0,-0.045 -0.0018,-0 -0.162177,0 -0.178571,0 -0.133929,0 -0.267857,0 -0.401786,0 -0.01488,0 -0.02976,0 -0.04464,0 -0.01488,0 -0.03799,-0.013 -0.04464,0 -0.01331,0.027 0.01331,0.063 0,0.089 -0.0067,0.013 -0.02976,0 -0.04464,0 -0.02334,0 -0.166833,-0.01 -0.178572,0 -0.01882,0.01 -0.02582,0.035 -0.04464,0.045 -0.02662,0.013 -0.06824,-0.021 -0.08929,0 -0.01052,0.011 0.01052,0.034 0,0.045 -0.02104,0.021 -0.06824,-0.021 -0.08929,0 -0.01052,0.011 0.01052,0.034 0,0.045 -0.02232,0.022 -0.111607,-0.022 -0.133929,0 -0.01052,0.01 0.01052,0.034 0,0.045 -0.01052,0.011 -0.03133,-0.01 -0.04464,0 -0.03765,0.019 -0.05164,0.07 -0.08929,0.089 -0.01331,0.01 -0.03133,-0.01 -0.04464,0 -0.185793,0.093 0.04772,-0 -0.04464,0.089 -0.02105,0.021 -0.06267,-0.013 -0.08929,0 -0.01882,0.01 -0.02582,0.035 -0.04464,0.045 -0.01331,0.01 -0.03412,-0.01 -0.04464,0 -0.01052,0.011 0.01052,0.034 0,0.045 -0.02985,0.03 -0.05943,-0.03 -0.08929,0 -0.01052,0.01 0.01052,0.034 0,0.045 -0.02232,0.022 -0.111607,-0.022 -0.133929,0 -0.01052,0.011 0.01052,0.034 0,0.045 -0.01074,0.011 -0.167829,-0.011 -0.178571,0 -0.01052,0.011 0.01052,0.034 0,0.045 -0.01052,0.011 -0.02976,0 -0.04464,0 -0.01488,0 -0.02976,0 -0.04464,0 -0.119047,0 -0.238095,0 -0.357143,0 -0.148809,0 -0.297619,0 -0.446428,0 -0.01488,0 -0.02976,0 -0.04464,0 -0.01488,0 -0.03412,0.011 -0.04464,0 -0.02353,-0.024 -0.02111,-0.066 -0.04464,-0.089 -0.01052,-0.011 -0.03412,0.011 -0.04464,0 -0.01052,-0.011 0.01052,-0.034 0,-0.045 -0.01052,-0.011 -0.03412,0.01 -0.04464,0 -0.01052,-0.011 0.01052,-0.034 0,-0.045 -0.01052,-0.01 -0.02976,0 -0.04464,0 -0.01488,0 -0.02976,0 -0.04464,0 -0.119048,0 0.01488,0.015 -0.04464,-0.045 -0.02232,-0.022 -0.111607,0.022 -0.133929,0 -0.01052,-0.01 0.01052,-0.034 0,-0.045 -0.01052,-0.011 -0.03133,0.01 -0.04464,0 -0.01882,-0.01 -0.02582,-0.035 -0.04464,-0.045 -0.01331,-0.01 -0.03412,0.01 -0.04464,0 -0.01052,-0.011 0.01052,-0.034 0,-0.045 -0.02104,-0.021 -0.06824,0.021 -0.08929,0 -0.01052,-0.01 0.01052,-0.034 0,-0.045 -0.02232,-0.022 -0.111607,0.022 -0.133929,0 -0.01052,-0.011 0.01052,-0.034 0,-0.045 -0.01052,-0.011 -0.02976,0 -0.04464,0 -0.01488,0 -0.02976,0 -0.04464,0 -0.01488,0 -0.02976,0 -0.04464,0 -0.01488,0 -0.03799,-0.013 -0.04464,0 -0.01331,0.027 0.01331,0.063 0,0.089 -0.0067,0.013 -0.02976,0 -0.04464,0 -0.01488,0 -0.02976,0 -0.04464,0 -0.119047,0 0.01488,-0.015 -0.04464,0.045 -0.02232,0.022 -0.111607,-0.022 -0.133928,0 -0.01052,0.01 0.01052,0.034 0,0.045 -0.02105,0.021 -0.06824,-0.021 -0.08929,0 -0.01052,0.01 0.01052,0.034 0,0.045 -0.02232,0.022 -0.111607,-0.022 -0.133928,0 -0.02232,0.022 0.02232,0.1117 0,0.134 -0.01052,0.011 -0.02976,0 -0.04464,0 -0.02976,0.045 -0.05952,0.089 -0.08929,0.1339 z"
       id="path4982"
       inkscape:connector-curvature="0" />
    <path
       style="fill:none;fill-rule:evenodd;stroke:#0044aa;stroke-width:0.5;stroke-linecap:butt;stroke-linejoin:miter;stroke-miterlimit:4;stroke-dasharray:none;stroke-opacity:1"
       d="m 19.388732,1026.4769 c -4.884705,-0.2069 0.465816,0.2164 -0.251201,3.2541 -0.169006,0.716 -2.837022,-2.4662 -3.430465,-1.4202 -1.060965,1.87 2.157354,1.8051 2.156487,4.3013 -2.18e-4,0.6265 -4.63381,-3.674 -4.781682,-1.9486 -0.184721,2.1555 5.331163,3.2464 5.731927,4.7722 0.375366,1.4292 -2.835395,2.6393 -2.835395,2.6393 2.636345,-0.8733 3.110286,-1.3878 3.339389,-0.065 0.967249,1.9156 1.463917,-2.3784 2.27607,-3.6888 0.225388,-0.3689 0.999355,-0.3978 1.375539,-0.2431 2.046003,0.8467 -1.183207,4.7295 2.718071,1.7181"
       id="path5003"
       inkscape:connector-curvature="0"
       sodipodi:nodetypes="csssssccccc" />
    <path
       style="fill:#784421;fill-opacity:1;fill-rule:evenodd;stroke:none;stroke-width:1px;stroke-linecap:butt;stroke-linejoin:miter;stroke-opacity:1"
       d="m 14.843197,1036.501 c -0.04494,0.4622 -0.05233,0.8425 -0.125848,1.0451 -0.203194,0.56 -0.543907,0.6458 -1.11467,0.3316 -1.200273,-0.6607 -3.9283117,2.3214 -0.889938,2.4219 0.584303,-0.013 1.8739,0.3798 2.686059,0.1717 2.261148,-0.5792 2.864454,1.1552 4.327762,0.5656 1.459804,-0.46 -0.600659,-2.7306 -1.208559,-2.1543 -0.709746,0.6728 -0.664849,-0.6731 -1.256848,-1.2249 -0.05393,-0.4823 0.988982,-2.0912 0.108034,-2.0611 -0.530367,0.05 -1.060734,0.2412 -1.276477,0 -0.859092,0.1014 -1.539026,-0.1084 -1.249515,0.9044 z"
       id="path5005"
       inkscape:connector-curvature="0"
       sodipodi:nodetypes="csscscscccc" />
    <path
       style="fill:#c8b7b7;fill-rule:evenodd;stroke:none;stroke-width:1px;stroke-linecap:butt;stroke-linejoin:miter;stroke-opacity:1"
       d="m 15.836818,1037.4443 c 0,0.094 -0.640625,0.1562 -0.28125,0.5312 0.359375,0.375 0.414617,0.5286 0.414617,0.5286 0,0 0.05951,0.3194 -0.727118,0.3933 -2.639401,0.2481 -0.835708,0.5604 -0.820083,0.6386 0.01563,0.078 0.724303,-0.3755 0.989928,-0.1099 0.265625,0.2656 0.523505,-0.1458 0.60163,-0.1927 0.07813,-0.047 0.483589,0.2627 0.608589,0.075 0.125,-0.1875 -0.345051,-0.5602 -0.235676,-0.8414 0.418735,0.2821 0.449362,-0.4604 0.324362,-0.6011 -0.125,-0.1406 -0.07813,-0.2187 -0.296875,-0.3437 -0.21875,-0.125 -0.5,-0.047 -0.5,-0.047 z"
       id="path5015"
       inkscape:connector-curvature="0"
       sodipodi:nodetypes="cscscscsccscc" />
  </g>
</svg>
