<?xml version="1.0" encoding="UTF-8" standalone="no"?>
<!-- Created with Inkscape (http://www.inkscape.org/) -->

<svg
   xmlns:dc="http://purl.org/dc/elements/1.1/"
   xmlns:cc="http://creativecommons.org/ns#"
   xmlns:rdf="http://www.w3.org/1999/02/22-rdf-syntax-ns#"
   xmlns:svg="http://www.w3.org/2000/svg"
   xmlns="http://www.w3.org/2000/svg"
   xmlns:sodipodi="http://sodipodi.sourceforge.net/DTD/sodipodi-0.dtd"
   xmlns:inkscape="http://www.inkscape.org/namespaces/inkscape"
   width="32"
   height="32"
   viewBox="0 0 32 32"
   id="svg4398"
   version="1.1"
   inkscape:version="0.91 r"
   sodipodi:docname="political.svg">
  <defs
     id="defs4400" />
  <sodipodi:namedview
     id="base"
     pagecolor="#ffffff"
     bordercolor="#666666"
     borderopacity="1.0"
     inkscape:pageopacity="0.0"
     inkscape:pageshadow="2"
     inkscape:zoom="32"
     inkscape:cx="10.408014"
     inkscape:cy="13.972628"
     inkscape:document-units="px"
     inkscape:current-layer="layer1"
     showgrid="false"
     units="px"
     inkscape:window-width="1920"
     inkscape:window-height="991"
     inkscape:window-x="1680"
     inkscape:window-y="0"
     inkscape:window-maximized="1" />
  <metadata
     id="metadata4403">
    <rdf:RDF>
      <cc:Work
         rdf:about="">
        <dc:format>image/svg+xml</dc:format>
        <dc:type
           rdf:resource="http://purl.org/dc/dcmitype/StillImage" />
        <dc:title></dc:title>
      </cc:Work>
    </rdf:RDF>
  </metadata>
  <g
     inkscape:label="Layer 1"
     inkscape:groupmode="layer"
     id="layer1"
     transform="translate(0,-1020.3622)">
    <path
       style="fill:#ff0000;fill-rule:evenodd;stroke:none;stroke-width:0.7;stroke-linecap:butt;stroke-linejoin:miter;stroke-opacity:1;stroke-miterlimit:4;stroke-dasharray:none"
       d="m 12.946429,1023.7908 c -1.116071,1.3393 3.214286,1.4732 1.383929,2.4553 -1.830357,0.9822 -1.160715,2.0536 -2.232143,0.759 -1.07143,-1.2947 0,0 -1.071429,-1.6072 -1.1160719,-0.5803 -1.0267865,-0.8929 -1.964286,-1.116 -4.2106588,0.017 -5.4269719,1.7675 -3.2589286,2.8125 1.8361782,0.1638 4.0021819,3.7577 1.3839286,3.8839 -0.7589286,-0.1339 -1.7857143,-2.5893 -1.6964286,-1.9197 0.089286,0.6697 -0.4910714,0.7143 -0.4464285,2.6786 0.6268901,2.0624 0,0 0.625,2.9015 2.4107142,1.7411 -0.089286,1.6518 2.4107142,1.7411 2.4999999,0.089 2.9910709,-0.8482 3.2142859,0.2232 0.818361,4.4104 -8.407296,0.044 -6.0714287,3.125 1.0965117,4.7247 5.2280637,0.3167 6.6071437,1.4286 0.892857,0.7589 1.607143,0.5357 0.892857,1.6071 -1.338182,1.5936 -2.459639,3.1621 -1.205357,4.1964 1.473214,1.1607 0.223214,5.0447 3.392857,2.0982 9.616365,-0.9481 2.051475,-2.1723 8.035714,-4.3303 1.339286,0.8482 1.383929,1.6518 2.544643,0.1786 1.160714,-1.4733 1.25,-0.045 1.830357,-2.1429 0.580357,-2.0982 0.714286,-3.7946 -0.3125,-4.9554 -1.026785,-1.1607 -1.875,-1.2946 -2.410714,-3.1696 -0.535714,-1.875 -2.857143,-1.875 -0.267857,-2.8125 2.589286,-0.9375 0,0 2.946428,-0.9821 1.437253,-0.7905 -0.696763,-4.5594 -2.008928,-3.7497 -3.125,1.6071 -1.116072,3.1696 -3.392857,1.741 -2.276786,-1.4285 -2.901786,-1.25 -3.035715,-2.5446 -0.133928,-1.2947 2.232143,-0.9822 -0.133928,-2.1875 -2.366072,-1.2054 -1.294643,-1.9197 -2.857143,-1.3393 -1.5625,0.5804 -2.901786,1.0268 -2.901786,1.0268 z"
       id="path4408"
       inkscape:connector-curvature="0"
       sodipodi:nodetypes="cccccccccccccccccccccsscccscsc" />
    <path
       style="fill:#0000ff;fill-rule:evenodd;stroke:none;stroke-width:0.69999999;stroke-linecap:butt;stroke-linejoin:miter;stroke-miterlimit:4;stroke-dasharray:none;stroke-opacity:1"
       d="m 11.700686,1041.2023 c 0.916111,0.7617 1.649001,0.5377 0.916111,1.6128 -1.373034,1.5992 -2.5237,3.1732 -1.23675,4.2112 1.511584,1.1647 0.229027,5.0624 3.481224,2.1055 9.866823,-0.9514 2.042406,-1.9299 8.182505,-4.0955 1.374167,0.8512 1.482474,1.4076 2.673418,-0.071 1.190945,-1.4786 1.282557,-0.045 1.878029,-2.1505 0.595472,-2.1055 0.732889,-3.8079 -0.320639,-4.9728 -1.053528,-1.1647 -1.923835,-1.2992 -2.473502,-3.1807 -1.123256,-0.4189 -1.522339,1.5905 -3.023139,-0.7262 -2.235914,-3.4517 0.827077,-0.9506 -4.90986,4.4438 -0.505426,0.4752 -0.427829,2.6143 -0.207605,3.2895 0.233343,0.7155 -4.086847,-0.6967 -4.959792,-0.4664 z"
       id="path4408-2"
       inkscape:connector-curvature="0"
       sodipodi:nodetypes="cccccccccsssc" />
    <path
       style="fill:#008000;fill-rule:evenodd;stroke:none;stroke-width:0.69999999;stroke-linecap:butt;stroke-linejoin:miter;stroke-miterlimit:4;stroke-dasharray:none;stroke-opacity:1"
       d="m 27.169399,1037.6356 c -1.026785,-1.1607 -1.75,-1.1071 -2.285714,-2.9821 -0.535714,-1.875 -3.138393,-1.875 -0.549107,-2.8125 2.589286,-0.9375 0,0 2.946428,-0.9821 1.437253,-0.7905 -0.696763,-4.5594 -2.008928,-3.7497 -3.125,1.6071 -1.116072,3.1696 -3.392857,1.741 -2.276786,-1.4285 -2.901786,-1.25 -3.035715,-2.5446 -0.133928,-1.2947 2.232143,-0.9822 -0.133928,-2.1875 -1.369466,1.3887 -2.396208,3.1074 -1.47644,3.5673 2.202529,1.1013 1.485975,3.1195 -0.231654,4.551 -0.677459,1.1936 -1.387518,2.0766 -0.322115,1.9141 1.185716,-0.1808 2.948704,0.6368 2.350499,1.5953 -0.639133,1.0241 -1.022587,-0.1848 -1.190509,1.2459 -0.153254,1.3058 3.145932,1.5616 3.262719,0.5363 0.332093,-2.9156 1.153738,-1.7154 2.055721,-0.9917 2.244745,1.801 4.113094,1.3453 4.0116,1.0993 z"
       id="path4408-7"
       inkscape:connector-curvature="0"
       sodipodi:nodetypes="csscccscscsssssc" />
    <path
       style="fill:#fff100;fill-rule:evenodd;stroke:none;stroke-width:0.69999999;stroke-linecap:butt;stroke-linejoin:miter;stroke-miterlimit:4;stroke-dasharray:none;stroke-opacity:1;fill-opacity:1"
       d="m 5.6517656,1034.6535 c 1.8803841,1.8516 0.1979761,1.696 2.6979763,1.7853 2.5000001,0.089 2.4828381,-0.7598 2.9270241,0.179 1.328301,-0.767 0.799369,-2.3791 -0.175205,-4.2931 -0.570243,0.5167 -2.6145655,0.7794 -5.4497954,2.3288 z"
       id="path4408-0"
       inkscape:connector-curvature="0"
       sodipodi:nodetypes="ccccc" />
  </g>
</svg>
